<?xml version="1.0" encoding="UTF-8" standalone="no"?>
<!-- Created with Inkscape (http://www.inkscape.org/) -->

<svg
   xmlns:dc="http://purl.org/dc/elements/1.1/"
   xmlns:cc="http://creativecommons.org/ns#"
   xmlns:rdf="http://www.w3.org/1999/02/22-rdf-syntax-ns#"
   xmlns:svg="http://www.w3.org/2000/svg"
   xmlns="http://www.w3.org/2000/svg"
   xmlns:sodipodi="http://sodipodi.sourceforge.net/DTD/sodipodi-0.dtd"
   xmlns:inkscape="http://www.inkscape.org/namespaces/inkscape"
   width="64"
   height="64"
   viewBox="0 0 16.933333 16.933334"
   version="1.1"
   id="svg1233"
   inkscape:export-filename="/home/corrado/Documents/vpnlogo.png"
   inkscape:export-xdpi="96"
   inkscape:export-ydpi="96"
   inkscape:version="0.92.2 2405546, 2018-03-11"
   sodipodi:docname="qomui_off.svg">
  <defs
     id="defs1227" />
  <sodipodi:namedview
     id="base"
     pagecolor="#ffffff"
     bordercolor="#666666"
     borderopacity="1.0"
     inkscape:pageopacity="0.0"
     inkscape:pageshadow="2"
     inkscape:zoom="7.9195959"
     inkscape:cx="-23.233509"
     inkscape:cy="22.3423"
     inkscape:document-units="mm"
     inkscape:current-layer="layer1"
     showgrid="false"
     units="px"
     inkscape:window-width="1920"
     inkscape:window-height="1015"
     inkscape:window-x="0"
     inkscape:window-y="0"
     inkscape:window-maximized="1" />
  <metadata
     id="metadata1230">
    <rdf:RDF>
      <cc:Work
         rdf:about="">
        <dc:format>image/svg+xml</dc:format>
        <dc:type
           rdf:resource="http://purl.org/dc/dcmitype/StillImage" />
        <dc:title></dc:title>
      </cc:Work>
    </rdf:RDF>
  </metadata>
  <g
     inkscape:label="Layer 1"
     inkscape:groupmode="layer"
     id="layer1"
     transform="translate(0,-280.06665)">
    <circle
       style="fill:#b7bec8;fill-opacity:1;stroke-width:0.04647532"
       id="path839"
       cx="8.4366579"
       cy="288.50699"
       r="8.4510756"
       inkscape:export-xdpi="96"
       inkscape:export-ydpi="96" />
    <text
       id="text425-6"
       y="295.53677"
       x="0.83637464"
       style="font-style:normal;font-weight:normal;font-size:1.9311887px;line-height:1.25;font-family:sans-serif;letter-spacing:0px;word-spacing:0px;fill:#333333;fill-opacity:1;stroke:none;stroke-width:0.04827972;"
       xml:space="preserve"><tspan
         style="font-style:normal;font-variant:normal;font-weight:normal;font-stretch:normal;font-size:19.31188774px;font-family:sans-serif;-inkscape-font-specification:sans-serif;fill:#333333;stroke-width:0.04827972;"
         y="295.53677"
         x="0.83637464"
         id="tspan423-7"
         sodipodi:role="line">O</tspan></text>
    <rect
       style="fill:#333333;fill-opacity:1;stroke:none;stroke-width:1.04397285;stroke-miterlimit:4;stroke-dasharray:none;stroke-opacity:1"
       id="rect877-5"
       width="2.1097987"
       height="4.5480289"
       x="-193.89511"
       y="234.77318"
       ry="0.56850356"
       transform="matrix(0.77598006,-0.63075744,0.68587083,0.7277233,0,0)" />
    <path
       style="fill:#333333;fill-opacity:1;stroke:none;stroke-width:1.60196435;stroke-linecap:butt;stroke-miterlimit:4;stroke-dasharray:none;stroke-opacity:1"
       d="m 7.5731745,294.54919 c -1.686786,-0.30822 -2.9395645,-1.47339 -3.5333657,-3.28627 -0.4021494,-1.22778 -0.5059976,-2.86019 -0.2752,-4.32594 0.4804302,-3.05112 2.5347436,-4.79453 5.2572832,-4.46162 2.069425,0.25304 3.47861,1.7442 3.978372,4.20979 0.261234,1.28881 0.176097,3.28939 -0.190495,4.47627 -0.507764,1.64395 -1.662683,2.86854 -3.0930719,3.27965 -0.4447081,0.12782 -1.6915463,0.19071 -2.1435226,0.10812 z"
       id="path1065-6"
       inkscape:connector-curvature="0" />
    <path
       style="fill:#666666;fill-opacity:1;stroke:none;stroke-width:1.44252753;stroke-linecap:butt;stroke-miterlimit:4;stroke-dasharray:none;stroke-opacity:1"
       d="m 7.6941925,293.94449 c -1.5189072,-0.27754 -2.647002,-1.32674 -3.1817047,-2.9592 -0.3621251,-1.10558 -0.4556378,-2.57553 -0.2478105,-3.8954 0.432615,-2.74745 2.2824714,-4.31734 4.7340482,-4.01757 1.8634645,0.22786 3.1323995,1.57061 3.5824205,3.79081 0.235236,1.16054 0.158571,2.96201 -0.171534,4.03076 -0.45723,1.48034 -1.497204,2.58305 -2.7852322,2.95325 -0.4004484,0.11509 -1.5231943,0.17172 -1.9301873,0.0973 z"
       id="path1065"
       inkscape:connector-curvature="0" />
    <path
       style="fill:#b7bec8;fill-opacity:1;stroke:none;stroke-width:0.7042563;stroke-linecap:butt;stroke-miterlimit:4;stroke-dasharray:none;stroke-opacity:1;paint-order:markers fill stroke"
       d="m 6.8576236,291.79787 c 0.00293,-0.12545 0.1395257,-0.94574 0.3035382,-1.82288 l 0.2982053,-1.59479 -0.2997558,-0.28161 c -1.1378322,-1.06893 -0.308802,-3.11058 1.263081,-3.11058 1.5841717,0 2.4145137,1.90501 1.3240051,3.03759 l -0.4007458,0.41621 0.312198,1.62915 c 0.1717087,0.89604 0.3144296,1.70247 0.3171575,1.79207 0.00369,0.12156 -0.3920828,0.16292 -1.5590273,0.16292 -1.4046574,0 -1.5634449,-0.0232 -1.5586562,-0.22808 z"
       id="path1044"
       inkscape:connector-curvature="0" />
  </g>
</svg>
